<?xml version="1.0" encoding="UTF-8" standalone="no"?>
<svg
   xmlns:dc="http://purl.org/dc/elements/1.1/"
   xmlns:cc="http://creativecommons.org/ns#"
   xmlns:rdf="http://www.w3.org/1999/02/22-rdf-syntax-ns#"
   xmlns:svg="http://www.w3.org/2000/svg"
   xmlns="http://www.w3.org/2000/svg"
   xmlns:sodipodi="http://sodipodi.sourceforge.net/DTD/sodipodi-0.dtd"
   xmlns:inkscape="http://www.inkscape.org/namespaces/inkscape"
   viewBox="0 0 41 41"
   id="vector"
   version="1.1"
   sodipodi:docname="camera.svg"
   inkscape:version="0.92.4 (5da689c313, 2019-01-14)">
  <metadata
     id="metadata9">
    <rdf:RDF>
      <cc:Work
         rdf:about="">
        <dc:format>image/svg+xml</dc:format>
        <dc:type
           rdf:resource="http://purl.org/dc/dcmitype/StillImage" />
        <dc:title />
      </cc:Work>
    </rdf:RDF>
  </metadata>
  <defs
     id="defs7" />
  <sodipodi:namedview
     pagecolor="#ffffff"
     bordercolor="#666666"
     borderopacity="1"
     objecttolerance="10"
     gridtolerance="10"
     guidetolerance="10"
     inkscape:pageopacity="0"
     inkscape:pageshadow="2"
     inkscape:window-width="3840"
     inkscape:window-height="2066"
     id="namedview5"
     showgrid="true"
     inkscape:zoom="32.561405"
     inkscape:cx="10.885231"
     inkscape:cy="18.520601"
     inkscape:window-x="2869"
     inkscape:window-y="-11"
     inkscape:window-maximized="1"
     inkscape:current-layer="vector">
    <inkscape:grid
       type="xygrid"
       id="grid832" />
  </sodipodi:namedview>
  <g
     id="g830"
     transform="matrix(1.2549834,0,0,1.2298697,-5.4651736,-4.9455798)">
    <path
       id="path"
       d="m 18.089655,19.189655 4.77,-8.26 c -0.7,-0.15 -1.42,-0.24 -2.17,-0.24 -2.4,0 -4.6,0.85 -6.32,2.25 l 3.66,6.35 z m 12.14,-1.5 c -0.92,-2.92 -3.15,-5.26 -6,-6.34 l -3.66,6.34 z m 0.26,1 h -7.49 l 0.29,0.5 4.76,8.25 c 1.64,-1.78 2.64,-4.14 2.64,-6.75 0,-0.69 -0.07,-1.35 -0.2,-2 z m -13.26,2 -3.9,-6.75 c -1.63,1.78 -2.64,4.14 -2.64,6.75 0,0.69 0.07,1.35 0.2,2 h 7.49 z m -6.08,3 c 0.92,2.92 3.15,5.26 6,6.34 l 3.66,-6.34 z m 11.27,0 -3.9,6.76 c 0.7,0.15 1.42,0.24 2.17,0.24 2.4,0 4.6,-0.85 6.32,-2.25 l -3.66,-6.35 z"
       inkscape:connector-curvature="0"
       style="fill:#000000;fill-opacity:1" />
    <path
       inkscape:connector-curvature="0"
       id="path4523"
       d="m 17.989746,19.201233 c -0.01881,-0.03273 -0.838062,-1.454903 -1.820562,-3.160388 -0.9825,-1.705485 -1.7827,-3.104095 -1.778223,-3.108023 0.0045,-0.0039 0.130294,-0.09931 0.279592,-0.211959 1.215042,-0.916783 2.60781,-1.540573 4.082627,-1.828517 0.772552,-0.150834 1.328982,-0.197951 2.139036,-0.181129 0.67691,0.01406 0.909323,0.03945 1.874174,0.204735 0.04286,0.0073 0.06777,0.02263 0.06188,0.03799 -0.01474,0.0384 -4.770398,8.272042 -4.788633,8.290724 -0.0086,0.0088 -0.03108,-0.0107 -0.04989,-0.04343 z"
       style="fill:#ff0000;fill-opacity:1;stroke:#000000;stroke-width:0;stroke-linecap:round;stroke-linejoin:miter;stroke-miterlimit:4;stroke-dasharray:none;stroke-opacity:1" />
    <path
       inkscape:connector-curvature="0"
       id="path4525"
       d="m 20.599049,17.668241 c 0,-0.0042 0.81191,-1.413852 1.804246,-3.132547 0.992335,-1.718695 1.810802,-3.136494 1.818814,-3.150665 0.01034,-0.01829 0.08701,0.0043 0.264213,0.07774 2.660248,1.102918 4.712928,3.277676 5.65426,5.990535 l 0.07724,0.22259 h -4.809386 c -2.645161,0 -4.809384,-0.0034 -4.809384,-0.0076 z"
       style="fill:#fffb00;fill-opacity:1;stroke:#000000;stroke-width:0;stroke-linecap:round;stroke-linejoin:miter;stroke-miterlimit:4;stroke-dasharray:none;stroke-opacity:1" />
    <path
       inkscape:connector-curvature="0"
       id="path4527"
       d="m 25.539462,23.07088 c -1.373544,-2.382484 -2.500609,-4.341362 -2.504591,-4.353062 -0.0047,-0.01383 1.296062,-0.02127 3.718469,-0.02127 h 3.725707 l 0.01142,0.04886 c 0.03011,0.128863 0.101802,0.603545 0.135285,0.895789 0.05309,0.463386 0.05271,1.650138 -6.78e-4,2.106462 -0.187915,1.60619 -0.704886,3.057445 -1.551022,4.354078 -0.292735,0.448593 -0.965206,1.305613 -1.021589,1.301949 -0.0086,-5.59e-4 -1.139456,-1.950322 -2.512999,-4.332806 z"
       style="fill:#fffb00;fill-opacity:1;stroke:#000000;stroke-width:0;stroke-linecap:round;stroke-linejoin:miter;stroke-miterlimit:4;stroke-dasharray:none;stroke-opacity:1" />
    <path
       inkscape:connector-curvature="0"
       id="path4529"
       d="m 22.485117,17.654356 -1.859958,-0.01104 1.10108,-1.911016 c 2.445346,-4.244102 2.490531,-4.321259 2.53454,-4.327831 0.08413,-0.01256 0.794006,0.309285 1.278683,0.579742 0.342929,0.191359 0.947086,0.589924 1.239771,0.817881 0.891585,0.69441 1.599833,1.455141 2.212496,2.376447 0.363748,0.546996 0.630252,1.033598 0.874172,1.596133 0.08935,0.206052 0.331665,0.848724 0.331665,0.879634 0,0.02218 -3.980639,0.0222 -7.712449,4.3e-5 z"
       style="fill:#ff9a00;fill-opacity:1;stroke:#000000;stroke-width:0;stroke-linecap:round;stroke-linejoin:miter;stroke-miterlimit:4;stroke-dasharray:none;stroke-opacity:1" />
    <path
       inkscape:connector-curvature="0"
       id="path4531"
       d="m 20.262449,30.669679 c -0.30923,-0.01802 -0.725845,-0.05852 -0.977225,-0.09501 -0.274441,-0.03983 -0.727911,-0.122385 -0.73905,-0.134542 -0.0053,-0.0058 3.017349,-5.251655 4.217983,-7.320412 0.461027,-0.794375 0.582719,-0.989222 0.603544,-0.966366 0.04704,0.05163 3.599912,6.233622 3.6025,6.268344 0.0033,0.04372 -0.319834,0.29384 -0.746682,0.578028 -1.116873,0.743594 -2.345257,1.248709 -3.644893,1.498789 -0.735009,0.141433 -1.657046,0.209572 -2.316177,0.171166 z"
       style="fill:#639a00;fill-opacity:1;stroke:#000000;stroke-width:0;stroke-linecap:round;stroke-linejoin:miter;stroke-miterlimit:4;stroke-dasharray:none;stroke-opacity:1" />
    <path
       inkscape:connector-curvature="0"
       id="path4533"
       d="m 17.013314,29.966299 c -2.555659,-1.01012 -4.621312,-3.082637 -5.626583,-5.645282 -0.118191,-0.301293 -0.220499,-0.607261 -0.207426,-0.620335 0.0052,-0.0052 2.16981,-0.0071 4.810153,-0.0041 l 4.800624,0.0055 -1.816807,3.147121 c -0.999244,1.730917 -1.826449,3.14928 -1.838234,3.151918 -0.01178,0.0026 -0.06656,-0.01304 -0.121727,-0.03485 z"
       style="fill:#639af1;fill-opacity:1;stroke:#000000;stroke-width:0;stroke-linecap:round;stroke-linejoin:miter;stroke-miterlimit:4;stroke-dasharray:none;stroke-opacity:1" />
    <path
       inkscape:connector-curvature="0"
       id="path4535"
       d="m 10.859482,22.469719 c -0.253405,-1.376436 -0.199732,-2.863777 0.15301,-4.240069 0.303366,-1.183641 0.8079,-2.27103 1.526511,-3.289989 0.195415,-0.27709 0.522593,-0.68828 0.680078,-0.854707 l 0.115932,-0.122514 1.650423,2.860048 c 2.486123,4.308244 3.334626,5.782543 3.347827,5.816945 0.01036,0.02699 -0.485887,0.03116 -3.712421,0.03116 h -3.724379 z"
       style="fill:#635df1;fill-opacity:1;stroke:#000000;stroke-width:0;stroke-linecap:round;stroke-linejoin:miter;stroke-miterlimit:4;stroke-dasharray:none;stroke-opacity:1" />
  </g>
</svg>
